# xmcd
#
# Track frame offsets: 
#        150
#        15305
#        31673
#        52732
#        69941
#        90347
#        103445
#        117701
#        130960
#        145299
#        162061
#        179706
#        190860
#
# Disc length: 2723 seconds
#
# Revision: 0
# Processed by: cddbd v1.5.2PL0 Copyright (c) Steve Scherf et al.
# Submitted via: ExactAudioCopy v0.95a5
#
DISCID=aa0aa10d
DTITLE=LeRoy Mack - Scratch'n My Beard
DYEAR=2006
DGENRE=Bluegrass
TTITLE0=God's Armor
TTITLE1=Steel Guitar Rag
TTITLE2=Tramp On The Street
TTITLE3=Caravan
TTITLE4=How Great Thou Art
TTITLE5=Heaven Is Real
TTITLE6=Santa Claus
TTITLE7=Satan's Train
TTITLE8=Scratch'n My beard
TTITLE9=Go Close The Windows
TTITLE10=Mississippi Squirrel
TTITLE11=Malquena
TTITLE12=Cry'n Holy To The Lord
EXTD=
EXTT0=
EXTT1=
EXTT2=
EXTT3=
EXTT4=
EXTT5=
EXTT6=
EXTT7=
EXTT8=
EXTT9=
EXTT10=
EXTT11=
EXTT12=
PLAYORDER=
